<mxfile host="app.diagrams.net" modified="2023-10-09T02:49:44.373Z" agent="Mozilla/5.0 (Windows NT 10.0; Win64; x64) AppleWebKit/537.36 (KHTML, like Gecko) Chrome/117.0.0.0 Safari/537.36 Edg/117.0.2045.60" etag="5KksCgUhHFRRYn5BCOwl" version="21.8.2" type="github">
  <diagram name="第 1 页" id="eBx3h2gKj6_HCztuXan-">
    <mxGraphModel dx="2528" dy="1805" grid="1" gridSize="10" guides="0" tooltips="1" connect="1" arrows="1" fold="1" page="1" pageScale="1" pageWidth="827" pageHeight="1169" math="0" shadow="0">
      <root>
        <mxCell id="0" />
        <mxCell id="1" parent="0" />
        <mxCell id="pXRvFqEu8pFY01dZWdWg-15" value="里氏替换原则" style="text;html=1;strokeColor=none;fillColor=none;align=center;verticalAlign=middle;whiteSpace=wrap;rounded=0;" vertex="1" parent="1">
          <mxGeometry x="-480" y="-940" width="140" height="30" as="geometry" />
        </mxCell>
        <mxCell id="pXRvFqEu8pFY01dZWdWg-17" value="InterfaceProduct63" style="swimlane;fontStyle=1;align=center;verticalAlign=top;childLayout=stackLayout;horizontal=1;startSize=26;horizontalStack=0;resizeParent=1;resizeParentMax=0;resizeLast=0;collapsible=1;marginBottom=0;whiteSpace=wrap;html=1;" vertex="1" parent="1">
          <mxGeometry x="-300" y="730" width="160" height="78" as="geometry" />
        </mxCell>
        <mxCell id="pXRvFqEu8pFY01dZWdWg-21" value="+ gerName() : String" style="text;strokeColor=none;fillColor=none;align=left;verticalAlign=top;spacingLeft=4;spacingRight=4;overflow=hidden;rotatable=0;points=[[0,0.5],[1,0.5]];portConstraint=eastwest;whiteSpace=wrap;html=1;" vertex="1" parent="pXRvFqEu8pFY01dZWdWg-17">
          <mxGeometry y="26" width="160" height="26" as="geometry" />
        </mxCell>
        <mxCell id="pXRvFqEu8pFY01dZWdWg-22" value="+ getPrice() : double" style="text;strokeColor=none;fillColor=none;align=left;verticalAlign=top;spacingLeft=4;spacingRight=4;overflow=hidden;rotatable=0;points=[[0,0.5],[1,0.5]];portConstraint=eastwest;whiteSpace=wrap;html=1;" vertex="1" parent="pXRvFqEu8pFY01dZWdWg-17">
          <mxGeometry y="52" width="160" height="26" as="geometry" />
        </mxCell>
        <mxCell id="pXRvFqEu8pFY01dZWdWg-23" value="ShopingCart63" style="swimlane;fontStyle=1;align=center;verticalAlign=top;childLayout=stackLayout;horizontal=1;startSize=26;horizontalStack=0;resizeParent=1;resizeParentMax=0;resizeLast=0;collapsible=1;marginBottom=0;whiteSpace=wrap;html=1;" vertex="1" parent="1">
          <mxGeometry x="-390" y="490" width="360" height="164" as="geometry" />
        </mxCell>
        <mxCell id="pXRvFqEu8pFY01dZWdWg-24" value="- items: List&amp;lt;InterfaceProduct&amp;gt;" style="text;strokeColor=none;fillColor=none;align=left;verticalAlign=top;spacingLeft=4;spacingRight=4;overflow=hidden;rotatable=0;points=[[0,0.5],[1,0.5]];portConstraint=eastwest;whiteSpace=wrap;html=1;" vertex="1" parent="pXRvFqEu8pFY01dZWdWg-23">
          <mxGeometry y="26" width="360" height="26" as="geometry" />
        </mxCell>
        <mxCell id="pXRvFqEu8pFY01dZWdWg-25" value="" style="line;strokeWidth=1;fillColor=none;align=left;verticalAlign=middle;spacingTop=-1;spacingLeft=3;spacingRight=3;rotatable=0;labelPosition=right;points=[];portConstraint=eastwest;strokeColor=inherit;" vertex="1" parent="pXRvFqEu8pFY01dZWdWg-23">
          <mxGeometry y="52" width="360" height="8" as="geometry" />
        </mxCell>
        <mxCell id="pXRvFqEu8pFY01dZWdWg-47" value="ShopingCart()" style="text;strokeColor=none;fillColor=none;align=left;verticalAlign=top;spacingLeft=4;spacingRight=4;overflow=hidden;rotatable=0;points=[[0,0.5],[1,0.5]];portConstraint=eastwest;whiteSpace=wrap;html=1;" vertex="1" parent="pXRvFqEu8pFY01dZWdWg-23">
          <mxGeometry y="60" width="360" height="26" as="geometry" />
        </mxCell>
        <mxCell id="pXRvFqEu8pFY01dZWdWg-26" value="+ addItem(product:InterfaceProduct) : void" style="text;strokeColor=none;fillColor=none;align=left;verticalAlign=top;spacingLeft=4;spacingRight=4;overflow=hidden;rotatable=0;points=[[0,0.5],[1,0.5]];portConstraint=eastwest;whiteSpace=wrap;html=1;" vertex="1" parent="pXRvFqEu8pFY01dZWdWg-23">
          <mxGeometry y="86" width="360" height="26" as="geometry" />
        </mxCell>
        <mxCell id="pXRvFqEu8pFY01dZWdWg-27" value="+ removeItem(product:InterfaceProduct) : void" style="text;strokeColor=none;fillColor=none;align=left;verticalAlign=top;spacingLeft=4;spacingRight=4;overflow=hidden;rotatable=0;points=[[0,0.5],[1,0.5]];portConstraint=eastwest;whiteSpace=wrap;html=1;" vertex="1" parent="pXRvFqEu8pFY01dZWdWg-23">
          <mxGeometry y="112" width="360" height="26" as="geometry" />
        </mxCell>
        <mxCell id="pXRvFqEu8pFY01dZWdWg-28" value="+ getTotalPrice() : double" style="text;strokeColor=none;fillColor=none;align=left;verticalAlign=top;spacingLeft=4;spacingRight=4;overflow=hidden;rotatable=0;points=[[0,0.5],[1,0.5]];portConstraint=eastwest;whiteSpace=wrap;html=1;" vertex="1" parent="pXRvFqEu8pFY01dZWdWg-23">
          <mxGeometry y="138" width="360" height="26" as="geometry" />
        </mxCell>
        <mxCell id="pXRvFqEu8pFY01dZWdWg-33" value="Phone63" style="swimlane;fontStyle=1;align=center;verticalAlign=top;childLayout=stackLayout;horizontal=1;startSize=26;horizontalStack=0;resizeParent=1;resizeParentMax=0;resizeLast=0;collapsible=1;marginBottom=0;whiteSpace=wrap;html=1;" vertex="1" parent="1">
          <mxGeometry x="-440" y="870" width="200" height="164" as="geometry" />
        </mxCell>
        <mxCell id="pXRvFqEu8pFY01dZWdWg-34" value="- name : String" style="text;strokeColor=none;fillColor=none;align=left;verticalAlign=top;spacingLeft=4;spacingRight=4;overflow=hidden;rotatable=0;points=[[0,0.5],[1,0.5]];portConstraint=eastwest;whiteSpace=wrap;html=1;" vertex="1" parent="pXRvFqEu8pFY01dZWdWg-33">
          <mxGeometry y="26" width="200" height="26" as="geometry" />
        </mxCell>
        <mxCell id="pXRvFqEu8pFY01dZWdWg-35" value="- price : double" style="text;strokeColor=none;fillColor=none;align=left;verticalAlign=top;spacingLeft=4;spacingRight=4;overflow=hidden;rotatable=0;points=[[0,0.5],[1,0.5]];portConstraint=eastwest;whiteSpace=wrap;html=1;" vertex="1" parent="pXRvFqEu8pFY01dZWdWg-33">
          <mxGeometry y="52" width="200" height="26" as="geometry" />
        </mxCell>
        <mxCell id="pXRvFqEu8pFY01dZWdWg-36" value="" style="line;strokeWidth=1;fillColor=none;align=left;verticalAlign=middle;spacingTop=-1;spacingLeft=3;spacingRight=3;rotatable=0;labelPosition=right;points=[];portConstraint=eastwest;strokeColor=inherit;" vertex="1" parent="pXRvFqEu8pFY01dZWdWg-33">
          <mxGeometry y="78" width="200" height="8" as="geometry" />
        </mxCell>
        <mxCell id="pXRvFqEu8pFY01dZWdWg-45" value="+ Phone(name: String,price:double)" style="text;strokeColor=none;fillColor=none;align=left;verticalAlign=top;spacingLeft=4;spacingRight=4;overflow=hidden;rotatable=0;points=[[0,0.5],[1,0.5]];portConstraint=eastwest;whiteSpace=wrap;html=1;" vertex="1" parent="pXRvFqEu8pFY01dZWdWg-33">
          <mxGeometry y="86" width="200" height="26" as="geometry" />
        </mxCell>
        <mxCell id="pXRvFqEu8pFY01dZWdWg-37" value="+ gerName() : String" style="text;strokeColor=none;fillColor=none;align=left;verticalAlign=top;spacingLeft=4;spacingRight=4;overflow=hidden;rotatable=0;points=[[0,0.5],[1,0.5]];portConstraint=eastwest;whiteSpace=wrap;html=1;" vertex="1" parent="pXRvFqEu8pFY01dZWdWg-33">
          <mxGeometry y="112" width="200" height="26" as="geometry" />
        </mxCell>
        <mxCell id="pXRvFqEu8pFY01dZWdWg-38" value="+ getPrice() : double" style="text;strokeColor=none;fillColor=none;align=left;verticalAlign=top;spacingLeft=4;spacingRight=4;overflow=hidden;rotatable=0;points=[[0,0.5],[1,0.5]];portConstraint=eastwest;whiteSpace=wrap;html=1;" vertex="1" parent="pXRvFqEu8pFY01dZWdWg-33">
          <mxGeometry y="138" width="200" height="26" as="geometry" />
        </mxCell>
        <mxCell id="pXRvFqEu8pFY01dZWdWg-39" value="Computer63" style="swimlane;fontStyle=1;align=center;verticalAlign=top;childLayout=stackLayout;horizontal=1;startSize=26;horizontalStack=0;resizeParent=1;resizeParentMax=0;resizeLast=0;collapsible=1;marginBottom=0;whiteSpace=wrap;html=1;" vertex="1" parent="1">
          <mxGeometry x="-200" y="870" width="220" height="164" as="geometry" />
        </mxCell>
        <mxCell id="pXRvFqEu8pFY01dZWdWg-40" value="- name : String" style="text;strokeColor=none;fillColor=none;align=left;verticalAlign=top;spacingLeft=4;spacingRight=4;overflow=hidden;rotatable=0;points=[[0,0.5],[1,0.5]];portConstraint=eastwest;whiteSpace=wrap;html=1;" vertex="1" parent="pXRvFqEu8pFY01dZWdWg-39">
          <mxGeometry y="26" width="220" height="26" as="geometry" />
        </mxCell>
        <mxCell id="pXRvFqEu8pFY01dZWdWg-41" value="- price : double" style="text;strokeColor=none;fillColor=none;align=left;verticalAlign=top;spacingLeft=4;spacingRight=4;overflow=hidden;rotatable=0;points=[[0,0.5],[1,0.5]];portConstraint=eastwest;whiteSpace=wrap;html=1;" vertex="1" parent="pXRvFqEu8pFY01dZWdWg-39">
          <mxGeometry y="52" width="220" height="26" as="geometry" />
        </mxCell>
        <mxCell id="pXRvFqEu8pFY01dZWdWg-42" value="" style="line;strokeWidth=1;fillColor=none;align=left;verticalAlign=middle;spacingTop=-1;spacingLeft=3;spacingRight=3;rotatable=0;labelPosition=right;points=[];portConstraint=eastwest;strokeColor=inherit;" vertex="1" parent="pXRvFqEu8pFY01dZWdWg-39">
          <mxGeometry y="78" width="220" height="8" as="geometry" />
        </mxCell>
        <mxCell id="pXRvFqEu8pFY01dZWdWg-46" value="+ Computer(name: String,price:double)" style="text;strokeColor=none;fillColor=none;align=left;verticalAlign=top;spacingLeft=4;spacingRight=4;overflow=hidden;rotatable=0;points=[[0,0.5],[1,0.5]];portConstraint=eastwest;whiteSpace=wrap;html=1;" vertex="1" parent="pXRvFqEu8pFY01dZWdWg-39">
          <mxGeometry y="86" width="220" height="26" as="geometry" />
        </mxCell>
        <mxCell id="pXRvFqEu8pFY01dZWdWg-43" value="+ gerName() : String" style="text;strokeColor=none;fillColor=none;align=left;verticalAlign=top;spacingLeft=4;spacingRight=4;overflow=hidden;rotatable=0;points=[[0,0.5],[1,0.5]];portConstraint=eastwest;whiteSpace=wrap;html=1;" vertex="1" parent="pXRvFqEu8pFY01dZWdWg-39">
          <mxGeometry y="112" width="220" height="26" as="geometry" />
        </mxCell>
        <mxCell id="pXRvFqEu8pFY01dZWdWg-44" value="+ getPrice() : double" style="text;strokeColor=none;fillColor=none;align=left;verticalAlign=top;spacingLeft=4;spacingRight=4;overflow=hidden;rotatable=0;points=[[0,0.5],[1,0.5]];portConstraint=eastwest;whiteSpace=wrap;html=1;" vertex="1" parent="pXRvFqEu8pFY01dZWdWg-39">
          <mxGeometry y="138" width="220" height="26" as="geometry" />
        </mxCell>
        <mxCell id="pXRvFqEu8pFY01dZWdWg-49" value="" style="endArrow=diamondThin;html=1;rounded=0;entryX=0.468;entryY=1.041;entryDx=0;entryDy=0;entryPerimeter=0;exitX=0.5;exitY=0;exitDx=0;exitDy=0;endFill=0;endSize=11;" edge="1" parent="1" source="pXRvFqEu8pFY01dZWdWg-17" target="pXRvFqEu8pFY01dZWdWg-28">
          <mxGeometry width="50" height="50" relative="1" as="geometry">
            <mxPoint x="-280" y="720" as="sourcePoint" />
            <mxPoint x="-230" y="670" as="targetPoint" />
          </mxGeometry>
        </mxCell>
        <mxCell id="pXRvFqEu8pFY01dZWdWg-50" value="" style="endArrow=diamondThin;html=1;rounded=0;entryX=0.314;entryY=1.226;entryDx=0;entryDy=0;entryPerimeter=0;exitX=0.428;exitY=-0.027;exitDx=0;exitDy=0;exitPerimeter=0;dashed=1;endFill=0;endSize=11;" edge="1" parent="1" source="pXRvFqEu8pFY01dZWdWg-33" target="pXRvFqEu8pFY01dZWdWg-22">
          <mxGeometry width="50" height="50" relative="1" as="geometry">
            <mxPoint x="-360" y="860" as="sourcePoint" />
            <mxPoint x="-310" y="810" as="targetPoint" />
          </mxGeometry>
        </mxCell>
        <mxCell id="pXRvFqEu8pFY01dZWdWg-51" value="" style="endArrow=diamondThin;html=1;rounded=0;entryX=0.675;entryY=1.045;entryDx=0;entryDy=0;entryPerimeter=0;exitX=0.464;exitY=-0.027;exitDx=0;exitDy=0;exitPerimeter=0;endSize=11;endFill=0;dashed=1;" edge="1" parent="1" source="pXRvFqEu8pFY01dZWdWg-39" target="pXRvFqEu8pFY01dZWdWg-22">
          <mxGeometry width="50" height="50" relative="1" as="geometry">
            <mxPoint x="-140" y="870" as="sourcePoint" />
            <mxPoint x="-90" y="820" as="targetPoint" />
          </mxGeometry>
        </mxCell>
        <mxCell id="pXRvFqEu8pFY01dZWdWg-52" value="依赖倒置原则" style="text;html=1;strokeColor=none;fillColor=none;align=center;verticalAlign=middle;whiteSpace=wrap;rounded=0;" vertex="1" parent="1">
          <mxGeometry x="-300" y="200" width="150" height="30" as="geometry" />
        </mxCell>
        <mxCell id="pXRvFqEu8pFY01dZWdWg-53" value="AbstractProduct63" style="swimlane;fontStyle=1;align=center;verticalAlign=top;childLayout=stackLayout;horizontal=1;startSize=26;horizontalStack=0;resizeParent=1;resizeParentMax=0;resizeLast=0;collapsible=1;marginBottom=0;whiteSpace=wrap;html=1;" vertex="1" parent="1">
          <mxGeometry x="-430" y="-330" width="160" height="78" as="geometry" />
        </mxCell>
        <mxCell id="pXRvFqEu8pFY01dZWdWg-54" value="+ gerName() : String" style="text;strokeColor=none;fillColor=none;align=left;verticalAlign=top;spacingLeft=4;spacingRight=4;overflow=hidden;rotatable=0;points=[[0,0.5],[1,0.5]];portConstraint=eastwest;whiteSpace=wrap;html=1;" vertex="1" parent="pXRvFqEu8pFY01dZWdWg-53">
          <mxGeometry y="26" width="160" height="26" as="geometry" />
        </mxCell>
        <mxCell id="pXRvFqEu8pFY01dZWdWg-55" value="+ getPrice() : double" style="text;strokeColor=none;fillColor=none;align=left;verticalAlign=top;spacingLeft=4;spacingRight=4;overflow=hidden;rotatable=0;points=[[0,0.5],[1,0.5]];portConstraint=eastwest;whiteSpace=wrap;html=1;" vertex="1" parent="pXRvFqEu8pFY01dZWdWg-53">
          <mxGeometry y="52" width="160" height="26" as="geometry" />
        </mxCell>
        <mxCell id="pXRvFqEu8pFY01dZWdWg-56" value="ShopingCart63" style="swimlane;fontStyle=1;align=center;verticalAlign=top;childLayout=stackLayout;horizontal=1;startSize=26;horizontalStack=0;resizeParent=1;resizeParentMax=0;resizeLast=0;collapsible=1;marginBottom=0;whiteSpace=wrap;html=1;" vertex="1" parent="1">
          <mxGeometry x="-520" y="-570" width="360" height="164" as="geometry" />
        </mxCell>
        <mxCell id="pXRvFqEu8pFY01dZWdWg-57" value="- items: List&amp;lt;AbstractProduct&amp;gt;" style="text;strokeColor=none;fillColor=none;align=left;verticalAlign=top;spacingLeft=4;spacingRight=4;overflow=hidden;rotatable=0;points=[[0,0.5],[1,0.5]];portConstraint=eastwest;whiteSpace=wrap;html=1;" vertex="1" parent="pXRvFqEu8pFY01dZWdWg-56">
          <mxGeometry y="26" width="360" height="26" as="geometry" />
        </mxCell>
        <mxCell id="pXRvFqEu8pFY01dZWdWg-58" value="" style="line;strokeWidth=1;fillColor=none;align=left;verticalAlign=middle;spacingTop=-1;spacingLeft=3;spacingRight=3;rotatable=0;labelPosition=right;points=[];portConstraint=eastwest;strokeColor=inherit;" vertex="1" parent="pXRvFqEu8pFY01dZWdWg-56">
          <mxGeometry y="52" width="360" height="8" as="geometry" />
        </mxCell>
        <mxCell id="pXRvFqEu8pFY01dZWdWg-59" value="ShopingCart()" style="text;strokeColor=none;fillColor=none;align=left;verticalAlign=top;spacingLeft=4;spacingRight=4;overflow=hidden;rotatable=0;points=[[0,0.5],[1,0.5]];portConstraint=eastwest;whiteSpace=wrap;html=1;" vertex="1" parent="pXRvFqEu8pFY01dZWdWg-56">
          <mxGeometry y="60" width="360" height="26" as="geometry" />
        </mxCell>
        <mxCell id="pXRvFqEu8pFY01dZWdWg-60" value="+ addItem(product:AbstractProduct) : void" style="text;strokeColor=none;fillColor=none;align=left;verticalAlign=top;spacingLeft=4;spacingRight=4;overflow=hidden;rotatable=0;points=[[0,0.5],[1,0.5]];portConstraint=eastwest;whiteSpace=wrap;html=1;" vertex="1" parent="pXRvFqEu8pFY01dZWdWg-56">
          <mxGeometry y="86" width="360" height="26" as="geometry" />
        </mxCell>
        <mxCell id="pXRvFqEu8pFY01dZWdWg-61" value="+ removeItem(product:AbstractProduct) : void" style="text;strokeColor=none;fillColor=none;align=left;verticalAlign=top;spacingLeft=4;spacingRight=4;overflow=hidden;rotatable=0;points=[[0,0.5],[1,0.5]];portConstraint=eastwest;whiteSpace=wrap;html=1;" vertex="1" parent="pXRvFqEu8pFY01dZWdWg-56">
          <mxGeometry y="112" width="360" height="26" as="geometry" />
        </mxCell>
        <mxCell id="pXRvFqEu8pFY01dZWdWg-62" value="+ getTotalPrice() : double" style="text;strokeColor=none;fillColor=none;align=left;verticalAlign=top;spacingLeft=4;spacingRight=4;overflow=hidden;rotatable=0;points=[[0,0.5],[1,0.5]];portConstraint=eastwest;whiteSpace=wrap;html=1;" vertex="1" parent="pXRvFqEu8pFY01dZWdWg-56">
          <mxGeometry y="138" width="360" height="26" as="geometry" />
        </mxCell>
        <mxCell id="pXRvFqEu8pFY01dZWdWg-63" value="Phone63" style="swimlane;fontStyle=1;align=center;verticalAlign=top;childLayout=stackLayout;horizontal=1;startSize=26;horizontalStack=0;resizeParent=1;resizeParentMax=0;resizeLast=0;collapsible=1;marginBottom=0;whiteSpace=wrap;html=1;" vertex="1" parent="1">
          <mxGeometry x="-570" y="-190" width="200" height="164" as="geometry" />
        </mxCell>
        <mxCell id="pXRvFqEu8pFY01dZWdWg-64" value="- name : String" style="text;strokeColor=none;fillColor=none;align=left;verticalAlign=top;spacingLeft=4;spacingRight=4;overflow=hidden;rotatable=0;points=[[0,0.5],[1,0.5]];portConstraint=eastwest;whiteSpace=wrap;html=1;" vertex="1" parent="pXRvFqEu8pFY01dZWdWg-63">
          <mxGeometry y="26" width="200" height="26" as="geometry" />
        </mxCell>
        <mxCell id="pXRvFqEu8pFY01dZWdWg-65" value="- price : double" style="text;strokeColor=none;fillColor=none;align=left;verticalAlign=top;spacingLeft=4;spacingRight=4;overflow=hidden;rotatable=0;points=[[0,0.5],[1,0.5]];portConstraint=eastwest;whiteSpace=wrap;html=1;" vertex="1" parent="pXRvFqEu8pFY01dZWdWg-63">
          <mxGeometry y="52" width="200" height="26" as="geometry" />
        </mxCell>
        <mxCell id="pXRvFqEu8pFY01dZWdWg-66" value="" style="line;strokeWidth=1;fillColor=none;align=left;verticalAlign=middle;spacingTop=-1;spacingLeft=3;spacingRight=3;rotatable=0;labelPosition=right;points=[];portConstraint=eastwest;strokeColor=inherit;" vertex="1" parent="pXRvFqEu8pFY01dZWdWg-63">
          <mxGeometry y="78" width="200" height="8" as="geometry" />
        </mxCell>
        <mxCell id="pXRvFqEu8pFY01dZWdWg-67" value="+ Phone(name: String,price:double)" style="text;strokeColor=none;fillColor=none;align=left;verticalAlign=top;spacingLeft=4;spacingRight=4;overflow=hidden;rotatable=0;points=[[0,0.5],[1,0.5]];portConstraint=eastwest;whiteSpace=wrap;html=1;" vertex="1" parent="pXRvFqEu8pFY01dZWdWg-63">
          <mxGeometry y="86" width="200" height="26" as="geometry" />
        </mxCell>
        <mxCell id="pXRvFqEu8pFY01dZWdWg-68" value="+ gerName() : String" style="text;strokeColor=none;fillColor=none;align=left;verticalAlign=top;spacingLeft=4;spacingRight=4;overflow=hidden;rotatable=0;points=[[0,0.5],[1,0.5]];portConstraint=eastwest;whiteSpace=wrap;html=1;" vertex="1" parent="pXRvFqEu8pFY01dZWdWg-63">
          <mxGeometry y="112" width="200" height="26" as="geometry" />
        </mxCell>
        <mxCell id="pXRvFqEu8pFY01dZWdWg-69" value="+ getPrice() : double" style="text;strokeColor=none;fillColor=none;align=left;verticalAlign=top;spacingLeft=4;spacingRight=4;overflow=hidden;rotatable=0;points=[[0,0.5],[1,0.5]];portConstraint=eastwest;whiteSpace=wrap;html=1;" vertex="1" parent="pXRvFqEu8pFY01dZWdWg-63">
          <mxGeometry y="138" width="200" height="26" as="geometry" />
        </mxCell>
        <mxCell id="pXRvFqEu8pFY01dZWdWg-70" value="Computer63" style="swimlane;fontStyle=1;align=center;verticalAlign=top;childLayout=stackLayout;horizontal=1;startSize=26;horizontalStack=0;resizeParent=1;resizeParentMax=0;resizeLast=0;collapsible=1;marginBottom=0;whiteSpace=wrap;html=1;" vertex="1" parent="1">
          <mxGeometry x="-330" y="-190" width="220" height="164" as="geometry" />
        </mxCell>
        <mxCell id="pXRvFqEu8pFY01dZWdWg-71" value="- name : String" style="text;strokeColor=none;fillColor=none;align=left;verticalAlign=top;spacingLeft=4;spacingRight=4;overflow=hidden;rotatable=0;points=[[0,0.5],[1,0.5]];portConstraint=eastwest;whiteSpace=wrap;html=1;" vertex="1" parent="pXRvFqEu8pFY01dZWdWg-70">
          <mxGeometry y="26" width="220" height="26" as="geometry" />
        </mxCell>
        <mxCell id="pXRvFqEu8pFY01dZWdWg-72" value="- price : double" style="text;strokeColor=none;fillColor=none;align=left;verticalAlign=top;spacingLeft=4;spacingRight=4;overflow=hidden;rotatable=0;points=[[0,0.5],[1,0.5]];portConstraint=eastwest;whiteSpace=wrap;html=1;" vertex="1" parent="pXRvFqEu8pFY01dZWdWg-70">
          <mxGeometry y="52" width="220" height="26" as="geometry" />
        </mxCell>
        <mxCell id="pXRvFqEu8pFY01dZWdWg-73" value="" style="line;strokeWidth=1;fillColor=none;align=left;verticalAlign=middle;spacingTop=-1;spacingLeft=3;spacingRight=3;rotatable=0;labelPosition=right;points=[];portConstraint=eastwest;strokeColor=inherit;" vertex="1" parent="pXRvFqEu8pFY01dZWdWg-70">
          <mxGeometry y="78" width="220" height="8" as="geometry" />
        </mxCell>
        <mxCell id="pXRvFqEu8pFY01dZWdWg-74" value="+ Computer(name: String,price:double)" style="text;strokeColor=none;fillColor=none;align=left;verticalAlign=top;spacingLeft=4;spacingRight=4;overflow=hidden;rotatable=0;points=[[0,0.5],[1,0.5]];portConstraint=eastwest;whiteSpace=wrap;html=1;" vertex="1" parent="pXRvFqEu8pFY01dZWdWg-70">
          <mxGeometry y="86" width="220" height="26" as="geometry" />
        </mxCell>
        <mxCell id="pXRvFqEu8pFY01dZWdWg-75" value="+ gerName() : String" style="text;strokeColor=none;fillColor=none;align=left;verticalAlign=top;spacingLeft=4;spacingRight=4;overflow=hidden;rotatable=0;points=[[0,0.5],[1,0.5]];portConstraint=eastwest;whiteSpace=wrap;html=1;" vertex="1" parent="pXRvFqEu8pFY01dZWdWg-70">
          <mxGeometry y="112" width="220" height="26" as="geometry" />
        </mxCell>
        <mxCell id="pXRvFqEu8pFY01dZWdWg-76" value="+ getPrice() : double" style="text;strokeColor=none;fillColor=none;align=left;verticalAlign=top;spacingLeft=4;spacingRight=4;overflow=hidden;rotatable=0;points=[[0,0.5],[1,0.5]];portConstraint=eastwest;whiteSpace=wrap;html=1;" vertex="1" parent="pXRvFqEu8pFY01dZWdWg-70">
          <mxGeometry y="138" width="220" height="26" as="geometry" />
        </mxCell>
        <mxCell id="pXRvFqEu8pFY01dZWdWg-77" value="" style="endArrow=none;html=1;rounded=0;entryX=0.468;entryY=1.041;entryDx=0;entryDy=0;entryPerimeter=0;exitX=0.5;exitY=0;exitDx=0;exitDy=0;endFill=0;endSize=11;startArrow=block;startFill=1;" edge="1" parent="1" source="pXRvFqEu8pFY01dZWdWg-53" target="pXRvFqEu8pFY01dZWdWg-62">
          <mxGeometry width="50" height="50" relative="1" as="geometry">
            <mxPoint x="-410" y="-340" as="sourcePoint" />
            <mxPoint x="-360" y="-390" as="targetPoint" />
          </mxGeometry>
        </mxCell>
        <mxCell id="pXRvFqEu8pFY01dZWdWg-78" value="" style="endArrow=block;html=1;rounded=0;entryX=0.314;entryY=1.226;entryDx=0;entryDy=0;entryPerimeter=0;exitX=0.428;exitY=-0.027;exitDx=0;exitDy=0;exitPerimeter=0;endFill=0;endSize=11;" edge="1" parent="1" source="pXRvFqEu8pFY01dZWdWg-63" target="pXRvFqEu8pFY01dZWdWg-55">
          <mxGeometry width="50" height="50" relative="1" as="geometry">
            <mxPoint x="-490" y="-200" as="sourcePoint" />
            <mxPoint x="-440" y="-250" as="targetPoint" />
          </mxGeometry>
        </mxCell>
        <mxCell id="pXRvFqEu8pFY01dZWdWg-79" value="" style="endArrow=block;html=1;rounded=0;entryX=0.675;entryY=1.045;entryDx=0;entryDy=0;entryPerimeter=0;exitX=0.464;exitY=-0.027;exitDx=0;exitDy=0;exitPerimeter=0;endSize=11;endFill=0;" edge="1" parent="1" source="pXRvFqEu8pFY01dZWdWg-70" target="pXRvFqEu8pFY01dZWdWg-55">
          <mxGeometry width="50" height="50" relative="1" as="geometry">
            <mxPoint x="-270" y="-190" as="sourcePoint" />
            <mxPoint x="-220" y="-240" as="targetPoint" />
          </mxGeometry>
        </mxCell>
        <mxCell id="pXRvFqEu8pFY01dZWdWg-80" value="接口隔离原则" style="text;html=1;strokeColor=none;fillColor=none;align=center;verticalAlign=middle;whiteSpace=wrap;rounded=0;" vertex="1" parent="1">
          <mxGeometry x="-730" y="1110" width="140" height="30" as="geometry" />
        </mxCell>
        <mxCell id="pXRvFqEu8pFY01dZWdWg-81" value="InterfaceProductName63" style="swimlane;fontStyle=1;align=center;verticalAlign=top;childLayout=stackLayout;horizontal=1;startSize=26;horizontalStack=0;resizeParent=1;resizeParentMax=0;resizeLast=0;collapsible=1;marginBottom=0;whiteSpace=wrap;html=1;" vertex="1" parent="1">
          <mxGeometry x="-680" y="1400" width="160" height="52" as="geometry" />
        </mxCell>
        <mxCell id="pXRvFqEu8pFY01dZWdWg-82" value="+ gerName() : String" style="text;strokeColor=none;fillColor=none;align=left;verticalAlign=top;spacingLeft=4;spacingRight=4;overflow=hidden;rotatable=0;points=[[0,0.5],[1,0.5]];portConstraint=eastwest;whiteSpace=wrap;html=1;" vertex="1" parent="pXRvFqEu8pFY01dZWdWg-81">
          <mxGeometry y="26" width="160" height="26" as="geometry" />
        </mxCell>
        <mxCell id="pXRvFqEu8pFY01dZWdWg-84" value="ShopingCart63" style="swimlane;fontStyle=1;align=center;verticalAlign=top;childLayout=stackLayout;horizontal=1;startSize=26;horizontalStack=0;resizeParent=1;resizeParentMax=0;resizeLast=0;collapsible=1;marginBottom=0;whiteSpace=wrap;html=1;" vertex="1" parent="1">
          <mxGeometry x="-910" y="1170" width="360" height="164" as="geometry" />
        </mxCell>
        <mxCell id="pXRvFqEu8pFY01dZWdWg-85" value="- items: List&amp;lt;InterfaceProductName&amp;gt;" style="text;strokeColor=none;fillColor=none;align=left;verticalAlign=top;spacingLeft=4;spacingRight=4;overflow=hidden;rotatable=0;points=[[0,0.5],[1,0.5]];portConstraint=eastwest;whiteSpace=wrap;html=1;" vertex="1" parent="pXRvFqEu8pFY01dZWdWg-84">
          <mxGeometry y="26" width="360" height="26" as="geometry" />
        </mxCell>
        <mxCell id="pXRvFqEu8pFY01dZWdWg-86" value="" style="line;strokeWidth=1;fillColor=none;align=left;verticalAlign=middle;spacingTop=-1;spacingLeft=3;spacingRight=3;rotatable=0;labelPosition=right;points=[];portConstraint=eastwest;strokeColor=inherit;" vertex="1" parent="pXRvFqEu8pFY01dZWdWg-84">
          <mxGeometry y="52" width="360" height="8" as="geometry" />
        </mxCell>
        <mxCell id="pXRvFqEu8pFY01dZWdWg-87" value="ShopingCart()" style="text;strokeColor=none;fillColor=none;align=left;verticalAlign=top;spacingLeft=4;spacingRight=4;overflow=hidden;rotatable=0;points=[[0,0.5],[1,0.5]];portConstraint=eastwest;whiteSpace=wrap;html=1;" vertex="1" parent="pXRvFqEu8pFY01dZWdWg-84">
          <mxGeometry y="60" width="360" height="26" as="geometry" />
        </mxCell>
        <mxCell id="pXRvFqEu8pFY01dZWdWg-88" value="+ addItem(product:InterfaceProductName) : void" style="text;strokeColor=none;fillColor=none;align=left;verticalAlign=top;spacingLeft=4;spacingRight=4;overflow=hidden;rotatable=0;points=[[0,0.5],[1,0.5]];portConstraint=eastwest;whiteSpace=wrap;html=1;" vertex="1" parent="pXRvFqEu8pFY01dZWdWg-84">
          <mxGeometry y="86" width="360" height="26" as="geometry" />
        </mxCell>
        <mxCell id="pXRvFqEu8pFY01dZWdWg-89" value="+ removeItem(product:InterfaceProductName) : void" style="text;strokeColor=none;fillColor=none;align=left;verticalAlign=top;spacingLeft=4;spacingRight=4;overflow=hidden;rotatable=0;points=[[0,0.5],[1,0.5]];portConstraint=eastwest;whiteSpace=wrap;html=1;" vertex="1" parent="pXRvFqEu8pFY01dZWdWg-84">
          <mxGeometry y="112" width="360" height="26" as="geometry" />
        </mxCell>
        <mxCell id="pXRvFqEu8pFY01dZWdWg-90" value="+ getTotalPrice() : double" style="text;strokeColor=none;fillColor=none;align=left;verticalAlign=top;spacingLeft=4;spacingRight=4;overflow=hidden;rotatable=0;points=[[0,0.5],[1,0.5]];portConstraint=eastwest;whiteSpace=wrap;html=1;" vertex="1" parent="pXRvFqEu8pFY01dZWdWg-84">
          <mxGeometry y="138" width="360" height="26" as="geometry" />
        </mxCell>
        <mxCell id="pXRvFqEu8pFY01dZWdWg-91" value="Phone63" style="swimlane;fontStyle=1;align=center;verticalAlign=top;childLayout=stackLayout;horizontal=1;startSize=26;horizontalStack=0;resizeParent=1;resizeParentMax=0;resizeLast=0;collapsible=1;marginBottom=0;whiteSpace=wrap;html=1;" vertex="1" parent="1">
          <mxGeometry x="-810" y="1550" width="200" height="164" as="geometry" />
        </mxCell>
        <mxCell id="pXRvFqEu8pFY01dZWdWg-92" value="- name : String" style="text;strokeColor=none;fillColor=none;align=left;verticalAlign=top;spacingLeft=4;spacingRight=4;overflow=hidden;rotatable=0;points=[[0,0.5],[1,0.5]];portConstraint=eastwest;whiteSpace=wrap;html=1;" vertex="1" parent="pXRvFqEu8pFY01dZWdWg-91">
          <mxGeometry y="26" width="200" height="26" as="geometry" />
        </mxCell>
        <mxCell id="pXRvFqEu8pFY01dZWdWg-93" value="- price : double" style="text;strokeColor=none;fillColor=none;align=left;verticalAlign=top;spacingLeft=4;spacingRight=4;overflow=hidden;rotatable=0;points=[[0,0.5],[1,0.5]];portConstraint=eastwest;whiteSpace=wrap;html=1;" vertex="1" parent="pXRvFqEu8pFY01dZWdWg-91">
          <mxGeometry y="52" width="200" height="26" as="geometry" />
        </mxCell>
        <mxCell id="pXRvFqEu8pFY01dZWdWg-94" value="" style="line;strokeWidth=1;fillColor=none;align=left;verticalAlign=middle;spacingTop=-1;spacingLeft=3;spacingRight=3;rotatable=0;labelPosition=right;points=[];portConstraint=eastwest;strokeColor=inherit;" vertex="1" parent="pXRvFqEu8pFY01dZWdWg-91">
          <mxGeometry y="78" width="200" height="8" as="geometry" />
        </mxCell>
        <mxCell id="pXRvFqEu8pFY01dZWdWg-95" value="+ Phone(name: String,price:double)" style="text;strokeColor=none;fillColor=none;align=left;verticalAlign=top;spacingLeft=4;spacingRight=4;overflow=hidden;rotatable=0;points=[[0,0.5],[1,0.5]];portConstraint=eastwest;whiteSpace=wrap;html=1;" vertex="1" parent="pXRvFqEu8pFY01dZWdWg-91">
          <mxGeometry y="86" width="200" height="26" as="geometry" />
        </mxCell>
        <mxCell id="pXRvFqEu8pFY01dZWdWg-96" value="+ gerName() : String" style="text;strokeColor=none;fillColor=none;align=left;verticalAlign=top;spacingLeft=4;spacingRight=4;overflow=hidden;rotatable=0;points=[[0,0.5],[1,0.5]];portConstraint=eastwest;whiteSpace=wrap;html=1;" vertex="1" parent="pXRvFqEu8pFY01dZWdWg-91">
          <mxGeometry y="112" width="200" height="26" as="geometry" />
        </mxCell>
        <mxCell id="pXRvFqEu8pFY01dZWdWg-97" value="+ getPrice() : double" style="text;strokeColor=none;fillColor=none;align=left;verticalAlign=top;spacingLeft=4;spacingRight=4;overflow=hidden;rotatable=0;points=[[0,0.5],[1,0.5]];portConstraint=eastwest;whiteSpace=wrap;html=1;" vertex="1" parent="pXRvFqEu8pFY01dZWdWg-91">
          <mxGeometry y="138" width="200" height="26" as="geometry" />
        </mxCell>
        <mxCell id="pXRvFqEu8pFY01dZWdWg-98" value="Computer63" style="swimlane;fontStyle=1;align=center;verticalAlign=top;childLayout=stackLayout;horizontal=1;startSize=26;horizontalStack=0;resizeParent=1;resizeParentMax=0;resizeLast=0;collapsible=1;marginBottom=0;whiteSpace=wrap;html=1;" vertex="1" parent="1">
          <mxGeometry x="-570" y="1550" width="220" height="164" as="geometry" />
        </mxCell>
        <mxCell id="pXRvFqEu8pFY01dZWdWg-99" value="- name : String" style="text;strokeColor=none;fillColor=none;align=left;verticalAlign=top;spacingLeft=4;spacingRight=4;overflow=hidden;rotatable=0;points=[[0,0.5],[1,0.5]];portConstraint=eastwest;whiteSpace=wrap;html=1;" vertex="1" parent="pXRvFqEu8pFY01dZWdWg-98">
          <mxGeometry y="26" width="220" height="26" as="geometry" />
        </mxCell>
        <mxCell id="pXRvFqEu8pFY01dZWdWg-100" value="- price : double" style="text;strokeColor=none;fillColor=none;align=left;verticalAlign=top;spacingLeft=4;spacingRight=4;overflow=hidden;rotatable=0;points=[[0,0.5],[1,0.5]];portConstraint=eastwest;whiteSpace=wrap;html=1;" vertex="1" parent="pXRvFqEu8pFY01dZWdWg-98">
          <mxGeometry y="52" width="220" height="26" as="geometry" />
        </mxCell>
        <mxCell id="pXRvFqEu8pFY01dZWdWg-101" value="" style="line;strokeWidth=1;fillColor=none;align=left;verticalAlign=middle;spacingTop=-1;spacingLeft=3;spacingRight=3;rotatable=0;labelPosition=right;points=[];portConstraint=eastwest;strokeColor=inherit;" vertex="1" parent="pXRvFqEu8pFY01dZWdWg-98">
          <mxGeometry y="78" width="220" height="8" as="geometry" />
        </mxCell>
        <mxCell id="pXRvFqEu8pFY01dZWdWg-102" value="+ Computer(name: String,price:double)" style="text;strokeColor=none;fillColor=none;align=left;verticalAlign=top;spacingLeft=4;spacingRight=4;overflow=hidden;rotatable=0;points=[[0,0.5],[1,0.5]];portConstraint=eastwest;whiteSpace=wrap;html=1;" vertex="1" parent="pXRvFqEu8pFY01dZWdWg-98">
          <mxGeometry y="86" width="220" height="26" as="geometry" />
        </mxCell>
        <mxCell id="pXRvFqEu8pFY01dZWdWg-103" value="+ gerName() : String" style="text;strokeColor=none;fillColor=none;align=left;verticalAlign=top;spacingLeft=4;spacingRight=4;overflow=hidden;rotatable=0;points=[[0,0.5],[1,0.5]];portConstraint=eastwest;whiteSpace=wrap;html=1;" vertex="1" parent="pXRvFqEu8pFY01dZWdWg-98">
          <mxGeometry y="112" width="220" height="26" as="geometry" />
        </mxCell>
        <mxCell id="pXRvFqEu8pFY01dZWdWg-104" value="+ getPrice() : double" style="text;strokeColor=none;fillColor=none;align=left;verticalAlign=top;spacingLeft=4;spacingRight=4;overflow=hidden;rotatable=0;points=[[0,0.5],[1,0.5]];portConstraint=eastwest;whiteSpace=wrap;html=1;" vertex="1" parent="pXRvFqEu8pFY01dZWdWg-98">
          <mxGeometry y="138" width="220" height="26" as="geometry" />
        </mxCell>
        <mxCell id="pXRvFqEu8pFY01dZWdWg-105" value="" style="endArrow=diamondThin;html=1;rounded=0;entryX=0.468;entryY=1.041;entryDx=0;entryDy=0;entryPerimeter=0;exitX=0.5;exitY=0;exitDx=0;exitDy=0;endFill=0;endSize=11;" edge="1" parent="1" source="pXRvFqEu8pFY01dZWdWg-81" target="pXRvFqEu8pFY01dZWdWg-90">
          <mxGeometry width="50" height="50" relative="1" as="geometry">
            <mxPoint x="-650" y="1400" as="sourcePoint" />
            <mxPoint x="-600" y="1350" as="targetPoint" />
          </mxGeometry>
        </mxCell>
        <mxCell id="pXRvFqEu8pFY01dZWdWg-106" value="" style="endArrow=diamondThin;html=1;rounded=0;entryX=0.314;entryY=1.226;entryDx=0;entryDy=0;entryPerimeter=0;exitX=0.428;exitY=-0.027;exitDx=0;exitDy=0;exitPerimeter=0;dashed=1;endFill=0;endSize=11;" edge="1" parent="1" source="pXRvFqEu8pFY01dZWdWg-91" target="pXRvFqEu8pFY01dZWdWg-83">
          <mxGeometry width="50" height="50" relative="1" as="geometry">
            <mxPoint x="-730" y="1540" as="sourcePoint" />
            <mxPoint x="-680" y="1490" as="targetPoint" />
          </mxGeometry>
        </mxCell>
        <mxCell id="pXRvFqEu8pFY01dZWdWg-107" value="" style="endArrow=diamondThin;html=1;rounded=0;entryX=0.675;entryY=1.045;entryDx=0;entryDy=0;entryPerimeter=0;exitX=0.464;exitY=-0.027;exitDx=0;exitDy=0;exitPerimeter=0;endSize=11;endFill=0;dashed=1;" edge="1" parent="1" source="pXRvFqEu8pFY01dZWdWg-98" target="pXRvFqEu8pFY01dZWdWg-83">
          <mxGeometry width="50" height="50" relative="1" as="geometry">
            <mxPoint x="-510" y="1550" as="sourcePoint" />
            <mxPoint x="-460" y="1500" as="targetPoint" />
          </mxGeometry>
        </mxCell>
        <mxCell id="pXRvFqEu8pFY01dZWdWg-111" value="InterfaceProductPrice63" style="swimlane;fontStyle=1;align=center;verticalAlign=top;childLayout=stackLayout;horizontal=1;startSize=26;horizontalStack=0;resizeParent=1;resizeParentMax=0;resizeLast=0;collapsible=1;marginBottom=0;whiteSpace=wrap;html=1;" vertex="1" parent="1">
          <mxGeometry x="-490" y="1410" width="160" height="52" as="geometry" />
        </mxCell>
        <mxCell id="pXRvFqEu8pFY01dZWdWg-113" value="+ getPrice() : double" style="text;strokeColor=none;fillColor=none;align=left;verticalAlign=top;spacingLeft=4;spacingRight=4;overflow=hidden;rotatable=0;points=[[0,0.5],[1,0.5]];portConstraint=eastwest;whiteSpace=wrap;html=1;" vertex="1" parent="pXRvFqEu8pFY01dZWdWg-111">
          <mxGeometry y="26" width="160" height="26" as="geometry" />
        </mxCell>
        <mxCell id="pXRvFqEu8pFY01dZWdWg-115" value="" style="endArrow=blockThin;html=1;rounded=0;entryX=0.398;entryY=1.134;entryDx=0;entryDy=0;entryPerimeter=0;exitX=0.868;exitY=-0.013;exitDx=0;exitDy=0;exitPerimeter=0;endFill=0;dashed=1;strokeWidth=1;endSize=11;" edge="1" parent="pXRvFqEu8pFY01dZWdWg-111" source="pXRvFqEu8pFY01dZWdWg-91">
          <mxGeometry width="50" height="50" relative="1" as="geometry">
            <mxPoint x="-90" y="148" as="sourcePoint" />
            <mxPoint x="23" y="55" as="targetPoint" />
          </mxGeometry>
        </mxCell>
        <mxCell id="pXRvFqEu8pFY01dZWdWg-114" value="" style="endArrow=blockThin;html=1;rounded=0;entryX=0.398;entryY=1.134;entryDx=0;entryDy=0;entryPerimeter=0;exitX=0.406;exitY=-0.013;exitDx=0;exitDy=0;exitPerimeter=0;endFill=0;dashed=1;strokeWidth=1;endSize=11;" edge="1" parent="1" source="pXRvFqEu8pFY01dZWdWg-91" target="pXRvFqEu8pFY01dZWdWg-82">
          <mxGeometry width="50" height="50" relative="1" as="geometry">
            <mxPoint x="-770" y="1530" as="sourcePoint" />
            <mxPoint x="-720" y="1480" as="targetPoint" />
          </mxGeometry>
        </mxCell>
        <mxCell id="pXRvFqEu8pFY01dZWdWg-116" value="" style="endArrow=blockThin;html=1;rounded=0;entryX=0.606;entryY=1.134;entryDx=0;entryDy=0;entryPerimeter=0;exitX=0.361;exitY=-0.013;exitDx=0;exitDy=0;exitPerimeter=0;endFill=0;dashed=1;strokeWidth=1;endSize=11;" edge="1" parent="1" source="pXRvFqEu8pFY01dZWdWg-98" target="pXRvFqEu8pFY01dZWdWg-82">
          <mxGeometry width="50" height="50" relative="1" as="geometry">
            <mxPoint x="-626" y="1558" as="sourcePoint" />
            <mxPoint x="-457" y="1475" as="targetPoint" />
          </mxGeometry>
        </mxCell>
        <mxCell id="pXRvFqEu8pFY01dZWdWg-117" value="" style="endArrow=blockThin;html=1;rounded=0;entryX=0.5;entryY=1;entryDx=0;entryDy=0;exitX=0.586;exitY=0.004;exitDx=0;exitDy=0;exitPerimeter=0;endFill=0;dashed=1;strokeWidth=1;endSize=11;" edge="1" parent="1" source="pXRvFqEu8pFY01dZWdWg-98" target="pXRvFqEu8pFY01dZWdWg-111">
          <mxGeometry width="50" height="50" relative="1" as="geometry">
            <mxPoint x="-616" y="1568" as="sourcePoint" />
            <mxPoint x="-447" y="1485" as="targetPoint" />
          </mxGeometry>
        </mxCell>
        <mxCell id="pXRvFqEu8pFY01dZWdWg-118" value="迪米特原则" style="text;html=1;strokeColor=none;fillColor=none;align=center;verticalAlign=middle;whiteSpace=wrap;rounded=0;" vertex="1" parent="1">
          <mxGeometry y="1120" width="140" height="30" as="geometry" />
        </mxCell>
        <mxCell id="pXRvFqEu8pFY01dZWdWg-121" value="ShopingCart63" style="swimlane;fontStyle=1;align=center;verticalAlign=top;childLayout=stackLayout;horizontal=1;startSize=26;horizontalStack=0;resizeParent=1;resizeParentMax=0;resizeLast=0;collapsible=1;marginBottom=0;whiteSpace=wrap;html=1;" vertex="1" parent="1">
          <mxGeometry x="-70" y="1420" width="360" height="164" as="geometry" />
        </mxCell>
        <mxCell id="pXRvFqEu8pFY01dZWdWg-122" value="- items: List&amp;lt;InterfaceProduct&amp;gt;" style="text;strokeColor=none;fillColor=none;align=left;verticalAlign=top;spacingLeft=4;spacingRight=4;overflow=hidden;rotatable=0;points=[[0,0.5],[1,0.5]];portConstraint=eastwest;whiteSpace=wrap;html=1;" vertex="1" parent="pXRvFqEu8pFY01dZWdWg-121">
          <mxGeometry y="26" width="360" height="26" as="geometry" />
        </mxCell>
        <mxCell id="pXRvFqEu8pFY01dZWdWg-123" value="" style="line;strokeWidth=1;fillColor=none;align=left;verticalAlign=middle;spacingTop=-1;spacingLeft=3;spacingRight=3;rotatable=0;labelPosition=right;points=[];portConstraint=eastwest;strokeColor=inherit;" vertex="1" parent="pXRvFqEu8pFY01dZWdWg-121">
          <mxGeometry y="52" width="360" height="8" as="geometry" />
        </mxCell>
        <mxCell id="pXRvFqEu8pFY01dZWdWg-124" value="ShopingCart()" style="text;strokeColor=none;fillColor=none;align=left;verticalAlign=top;spacingLeft=4;spacingRight=4;overflow=hidden;rotatable=0;points=[[0,0.5],[1,0.5]];portConstraint=eastwest;whiteSpace=wrap;html=1;" vertex="1" parent="pXRvFqEu8pFY01dZWdWg-121">
          <mxGeometry y="60" width="360" height="26" as="geometry" />
        </mxCell>
        <mxCell id="pXRvFqEu8pFY01dZWdWg-125" value="+ addItem(product:InterfaceProduct) : void" style="text;strokeColor=none;fillColor=none;align=left;verticalAlign=top;spacingLeft=4;spacingRight=4;overflow=hidden;rotatable=0;points=[[0,0.5],[1,0.5]];portConstraint=eastwest;whiteSpace=wrap;html=1;" vertex="1" parent="pXRvFqEu8pFY01dZWdWg-121">
          <mxGeometry y="86" width="360" height="26" as="geometry" />
        </mxCell>
        <mxCell id="pXRvFqEu8pFY01dZWdWg-126" value="+ removeItem(product:InterfaceProduct) : void" style="text;strokeColor=none;fillColor=none;align=left;verticalAlign=top;spacingLeft=4;spacingRight=4;overflow=hidden;rotatable=0;points=[[0,0.5],[1,0.5]];portConstraint=eastwest;whiteSpace=wrap;html=1;" vertex="1" parent="pXRvFqEu8pFY01dZWdWg-121">
          <mxGeometry y="112" width="360" height="26" as="geometry" />
        </mxCell>
        <mxCell id="pXRvFqEu8pFY01dZWdWg-127" value="+ getTotalPrice() : double" style="text;strokeColor=none;fillColor=none;align=left;verticalAlign=top;spacingLeft=4;spacingRight=4;overflow=hidden;rotatable=0;points=[[0,0.5],[1,0.5]];portConstraint=eastwest;whiteSpace=wrap;html=1;" vertex="1" parent="pXRvFqEu8pFY01dZWdWg-121">
          <mxGeometry y="138" width="360" height="26" as="geometry" />
        </mxCell>
        <mxCell id="pXRvFqEu8pFY01dZWdWg-128" value="Phone63" style="swimlane;fontStyle=1;align=center;verticalAlign=top;childLayout=stackLayout;horizontal=1;startSize=26;horizontalStack=0;resizeParent=1;resizeParentMax=0;resizeLast=0;collapsible=1;marginBottom=0;whiteSpace=wrap;html=1;" vertex="1" parent="1">
          <mxGeometry x="-120" y="1800" width="200" height="164" as="geometry" />
        </mxCell>
        <mxCell id="pXRvFqEu8pFY01dZWdWg-129" value="- name : String" style="text;strokeColor=none;fillColor=none;align=left;verticalAlign=top;spacingLeft=4;spacingRight=4;overflow=hidden;rotatable=0;points=[[0,0.5],[1,0.5]];portConstraint=eastwest;whiteSpace=wrap;html=1;" vertex="1" parent="pXRvFqEu8pFY01dZWdWg-128">
          <mxGeometry y="26" width="200" height="26" as="geometry" />
        </mxCell>
        <mxCell id="pXRvFqEu8pFY01dZWdWg-130" value="- price : double" style="text;strokeColor=none;fillColor=none;align=left;verticalAlign=top;spacingLeft=4;spacingRight=4;overflow=hidden;rotatable=0;points=[[0,0.5],[1,0.5]];portConstraint=eastwest;whiteSpace=wrap;html=1;" vertex="1" parent="pXRvFqEu8pFY01dZWdWg-128">
          <mxGeometry y="52" width="200" height="26" as="geometry" />
        </mxCell>
        <mxCell id="pXRvFqEu8pFY01dZWdWg-131" value="" style="line;strokeWidth=1;fillColor=none;align=left;verticalAlign=middle;spacingTop=-1;spacingLeft=3;spacingRight=3;rotatable=0;labelPosition=right;points=[];portConstraint=eastwest;strokeColor=inherit;" vertex="1" parent="pXRvFqEu8pFY01dZWdWg-128">
          <mxGeometry y="78" width="200" height="8" as="geometry" />
        </mxCell>
        <mxCell id="pXRvFqEu8pFY01dZWdWg-132" value="+ Phone(name: String,price:double)" style="text;strokeColor=none;fillColor=none;align=left;verticalAlign=top;spacingLeft=4;spacingRight=4;overflow=hidden;rotatable=0;points=[[0,0.5],[1,0.5]];portConstraint=eastwest;whiteSpace=wrap;html=1;" vertex="1" parent="pXRvFqEu8pFY01dZWdWg-128">
          <mxGeometry y="86" width="200" height="26" as="geometry" />
        </mxCell>
        <mxCell id="pXRvFqEu8pFY01dZWdWg-133" value="+ gerName() : String" style="text;strokeColor=none;fillColor=none;align=left;verticalAlign=top;spacingLeft=4;spacingRight=4;overflow=hidden;rotatable=0;points=[[0,0.5],[1,0.5]];portConstraint=eastwest;whiteSpace=wrap;html=1;" vertex="1" parent="pXRvFqEu8pFY01dZWdWg-128">
          <mxGeometry y="112" width="200" height="26" as="geometry" />
        </mxCell>
        <mxCell id="pXRvFqEu8pFY01dZWdWg-134" value="+ getPrice() : double" style="text;strokeColor=none;fillColor=none;align=left;verticalAlign=top;spacingLeft=4;spacingRight=4;overflow=hidden;rotatable=0;points=[[0,0.5],[1,0.5]];portConstraint=eastwest;whiteSpace=wrap;html=1;" vertex="1" parent="pXRvFqEu8pFY01dZWdWg-128">
          <mxGeometry y="138" width="200" height="26" as="geometry" />
        </mxCell>
        <mxCell id="pXRvFqEu8pFY01dZWdWg-135" value="Computer63" style="swimlane;fontStyle=1;align=center;verticalAlign=top;childLayout=stackLayout;horizontal=1;startSize=26;horizontalStack=0;resizeParent=1;resizeParentMax=0;resizeLast=0;collapsible=1;marginBottom=0;whiteSpace=wrap;html=1;" vertex="1" parent="1">
          <mxGeometry x="120" y="1800" width="220" height="164" as="geometry" />
        </mxCell>
        <mxCell id="pXRvFqEu8pFY01dZWdWg-136" value="- name : String" style="text;strokeColor=none;fillColor=none;align=left;verticalAlign=top;spacingLeft=4;spacingRight=4;overflow=hidden;rotatable=0;points=[[0,0.5],[1,0.5]];portConstraint=eastwest;whiteSpace=wrap;html=1;" vertex="1" parent="pXRvFqEu8pFY01dZWdWg-135">
          <mxGeometry y="26" width="220" height="26" as="geometry" />
        </mxCell>
        <mxCell id="pXRvFqEu8pFY01dZWdWg-137" value="- price : double" style="text;strokeColor=none;fillColor=none;align=left;verticalAlign=top;spacingLeft=4;spacingRight=4;overflow=hidden;rotatable=0;points=[[0,0.5],[1,0.5]];portConstraint=eastwest;whiteSpace=wrap;html=1;" vertex="1" parent="pXRvFqEu8pFY01dZWdWg-135">
          <mxGeometry y="52" width="220" height="26" as="geometry" />
        </mxCell>
        <mxCell id="pXRvFqEu8pFY01dZWdWg-138" value="" style="line;strokeWidth=1;fillColor=none;align=left;verticalAlign=middle;spacingTop=-1;spacingLeft=3;spacingRight=3;rotatable=0;labelPosition=right;points=[];portConstraint=eastwest;strokeColor=inherit;" vertex="1" parent="pXRvFqEu8pFY01dZWdWg-135">
          <mxGeometry y="78" width="220" height="8" as="geometry" />
        </mxCell>
        <mxCell id="pXRvFqEu8pFY01dZWdWg-139" value="+ Computer(name: String,price:double)" style="text;strokeColor=none;fillColor=none;align=left;verticalAlign=top;spacingLeft=4;spacingRight=4;overflow=hidden;rotatable=0;points=[[0,0.5],[1,0.5]];portConstraint=eastwest;whiteSpace=wrap;html=1;" vertex="1" parent="pXRvFqEu8pFY01dZWdWg-135">
          <mxGeometry y="86" width="220" height="26" as="geometry" />
        </mxCell>
        <mxCell id="pXRvFqEu8pFY01dZWdWg-140" value="+ gerName() : String" style="text;strokeColor=none;fillColor=none;align=left;verticalAlign=top;spacingLeft=4;spacingRight=4;overflow=hidden;rotatable=0;points=[[0,0.5],[1,0.5]];portConstraint=eastwest;whiteSpace=wrap;html=1;" vertex="1" parent="pXRvFqEu8pFY01dZWdWg-135">
          <mxGeometry y="112" width="220" height="26" as="geometry" />
        </mxCell>
        <mxCell id="pXRvFqEu8pFY01dZWdWg-141" value="+ getPrice() : double" style="text;strokeColor=none;fillColor=none;align=left;verticalAlign=top;spacingLeft=4;spacingRight=4;overflow=hidden;rotatable=0;points=[[0,0.5],[1,0.5]];portConstraint=eastwest;whiteSpace=wrap;html=1;" vertex="1" parent="pXRvFqEu8pFY01dZWdWg-135">
          <mxGeometry y="138" width="220" height="26" as="geometry" />
        </mxCell>
        <mxCell id="pXRvFqEu8pFY01dZWdWg-146" value="" style="endArrow=blockThin;html=1;rounded=0;entryX=0.25;entryY=1;entryDx=0;entryDy=0;exitX=0.406;exitY=-0.013;exitDx=0;exitDy=0;exitPerimeter=0;endFill=0;dashed=1;strokeWidth=1;endSize=11;" edge="1" parent="1" source="pXRvFqEu8pFY01dZWdWg-128" target="pXRvFqEu8pFY01dZWdWg-149">
          <mxGeometry width="50" height="50" relative="1" as="geometry">
            <mxPoint x="-80" y="1780" as="sourcePoint" />
            <mxPoint x="73.68000000000006" y="1705.484" as="targetPoint" />
          </mxGeometry>
        </mxCell>
        <mxCell id="pXRvFqEu8pFY01dZWdWg-147" value="" style="endArrow=blockThin;html=1;rounded=0;exitX=0.361;exitY=-0.013;exitDx=0;exitDy=0;exitPerimeter=0;endFill=0;dashed=1;strokeWidth=1;endSize=11;" edge="1" parent="1" source="pXRvFqEu8pFY01dZWdWg-135">
          <mxGeometry width="50" height="50" relative="1" as="geometry">
            <mxPoint x="64" y="1808" as="sourcePoint" />
            <mxPoint x="120" y="1710" as="targetPoint" />
          </mxGeometry>
        </mxCell>
        <mxCell id="pXRvFqEu8pFY01dZWdWg-149" value="InterfaceProduct63" style="swimlane;fontStyle=1;align=center;verticalAlign=top;childLayout=stackLayout;horizontal=1;startSize=26;horizontalStack=0;resizeParent=1;resizeParentMax=0;resizeLast=0;collapsible=1;marginBottom=0;whiteSpace=wrap;html=1;" vertex="1" parent="1">
          <mxGeometry x="20" y="1630" width="160" height="78" as="geometry" />
        </mxCell>
        <mxCell id="pXRvFqEu8pFY01dZWdWg-150" value="+ gerName() : String" style="text;strokeColor=none;fillColor=none;align=left;verticalAlign=top;spacingLeft=4;spacingRight=4;overflow=hidden;rotatable=0;points=[[0,0.5],[1,0.5]];portConstraint=eastwest;whiteSpace=wrap;html=1;" vertex="1" parent="pXRvFqEu8pFY01dZWdWg-149">
          <mxGeometry y="26" width="160" height="26" as="geometry" />
        </mxCell>
        <mxCell id="pXRvFqEu8pFY01dZWdWg-151" value="+ getPrice() : double" style="text;strokeColor=none;fillColor=none;align=left;verticalAlign=top;spacingLeft=4;spacingRight=4;overflow=hidden;rotatable=0;points=[[0,0.5],[1,0.5]];portConstraint=eastwest;whiteSpace=wrap;html=1;" vertex="1" parent="pXRvFqEu8pFY01dZWdWg-149">
          <mxGeometry y="52" width="160" height="26" as="geometry" />
        </mxCell>
        <mxCell id="pXRvFqEu8pFY01dZWdWg-152" value="" style="endArrow=classic;html=1;rounded=0;exitX=0.461;exitY=1.133;exitDx=0;exitDy=0;exitPerimeter=0;entryX=0.5;entryY=0;entryDx=0;entryDy=0;" edge="1" parent="1" source="pXRvFqEu8pFY01dZWdWg-127" target="pXRvFqEu8pFY01dZWdWg-149">
          <mxGeometry width="50" height="50" relative="1" as="geometry">
            <mxPoint x="260" y="1660" as="sourcePoint" />
            <mxPoint x="310" y="1610" as="targetPoint" />
          </mxGeometry>
        </mxCell>
        <mxCell id="pXRvFqEu8pFY01dZWdWg-153" value="Client" style="swimlane;fontStyle=1;align=center;verticalAlign=top;childLayout=stackLayout;horizontal=1;startSize=26;horizontalStack=0;resizeParent=1;resizeParentMax=0;resizeLast=0;collapsible=1;marginBottom=0;whiteSpace=wrap;html=1;" vertex="1" parent="1">
          <mxGeometry x="-100" y="1190" width="400" height="164" as="geometry" />
        </mxCell>
        <mxCell id="pXRvFqEu8pFY01dZWdWg-154" value="+ shopingcart: ShopingCart" style="text;strokeColor=none;fillColor=none;align=left;verticalAlign=top;spacingLeft=4;spacingRight=4;overflow=hidden;rotatable=0;points=[[0,0.5],[1,0.5]];portConstraint=eastwest;whiteSpace=wrap;html=1;" vertex="1" parent="pXRvFqEu8pFY01dZWdWg-153">
          <mxGeometry y="26" width="400" height="26" as="geometry" />
        </mxCell>
        <mxCell id="pXRvFqEu8pFY01dZWdWg-155" value="" style="line;strokeWidth=1;fillColor=none;align=left;verticalAlign=middle;spacingTop=-1;spacingLeft=3;spacingRight=3;rotatable=0;labelPosition=right;points=[];portConstraint=eastwest;strokeColor=inherit;" vertex="1" parent="pXRvFqEu8pFY01dZWdWg-153">
          <mxGeometry y="52" width="400" height="8" as="geometry" />
        </mxCell>
        <mxCell id="pXRvFqEu8pFY01dZWdWg-156" value="+ Client()" style="text;strokeColor=none;fillColor=none;align=left;verticalAlign=top;spacingLeft=4;spacingRight=4;overflow=hidden;rotatable=0;points=[[0,0.5],[1,0.5]];portConstraint=eastwest;whiteSpace=wrap;html=1;" vertex="1" parent="pXRvFqEu8pFY01dZWdWg-153">
          <mxGeometry y="60" width="400" height="26" as="geometry" />
        </mxCell>
        <mxCell id="pXRvFqEu8pFY01dZWdWg-159" value="+ addToCart(product: InterfaceProduct) : void" style="text;strokeColor=none;fillColor=none;align=left;verticalAlign=top;spacingLeft=4;spacingRight=4;overflow=hidden;rotatable=0;points=[[0,0.5],[1,0.5]];portConstraint=eastwest;whiteSpace=wrap;html=1;" vertex="1" parent="pXRvFqEu8pFY01dZWdWg-153">
          <mxGeometry y="86" width="400" height="26" as="geometry" />
        </mxCell>
        <mxCell id="pXRvFqEu8pFY01dZWdWg-158" value="+ removeFromCart(product : InterfaceProduct) : void" style="text;strokeColor=none;fillColor=none;align=left;verticalAlign=top;spacingLeft=4;spacingRight=4;overflow=hidden;rotatable=0;points=[[0,0.5],[1,0.5]];portConstraint=eastwest;whiteSpace=wrap;html=1;" vertex="1" parent="pXRvFqEu8pFY01dZWdWg-153">
          <mxGeometry y="112" width="400" height="26" as="geometry" />
        </mxCell>
        <mxCell id="pXRvFqEu8pFY01dZWdWg-157" value="+ check() : void" style="text;strokeColor=none;fillColor=none;align=left;verticalAlign=top;spacingLeft=4;spacingRight=4;overflow=hidden;rotatable=0;points=[[0,0.5],[1,0.5]];portConstraint=eastwest;whiteSpace=wrap;html=1;" vertex="1" parent="pXRvFqEu8pFY01dZWdWg-153">
          <mxGeometry y="138" width="400" height="26" as="geometry" />
        </mxCell>
        <mxCell id="pXRvFqEu8pFY01dZWdWg-160" value="" style="endArrow=classic;html=1;rounded=0;entryX=0.5;entryY=0;entryDx=0;entryDy=0;exitX=0.527;exitY=1.302;exitDx=0;exitDy=0;exitPerimeter=0;" edge="1" parent="1" source="pXRvFqEu8pFY01dZWdWg-157" target="pXRvFqEu8pFY01dZWdWg-121">
          <mxGeometry width="50" height="50" relative="1" as="geometry">
            <mxPoint x="150" y="1440" as="sourcePoint" />
            <mxPoint x="200" y="1390" as="targetPoint" />
          </mxGeometry>
        </mxCell>
        <mxCell id="pXRvFqEu8pFY01dZWdWg-161" value="Client" style="swimlane;fontStyle=1;align=center;verticalAlign=top;childLayout=stackLayout;horizontal=1;startSize=26;horizontalStack=0;resizeParent=1;resizeParentMax=0;resizeLast=0;collapsible=1;marginBottom=0;whiteSpace=wrap;html=1;" vertex="1" parent="1">
          <mxGeometry x="-530" y="1160" width="400" height="164" as="geometry" />
        </mxCell>
        <mxCell id="pXRvFqEu8pFY01dZWdWg-162" value="+ shopingcart: ShopingCart" style="text;strokeColor=none;fillColor=none;align=left;verticalAlign=top;spacingLeft=4;spacingRight=4;overflow=hidden;rotatable=0;points=[[0,0.5],[1,0.5]];portConstraint=eastwest;whiteSpace=wrap;html=1;" vertex="1" parent="pXRvFqEu8pFY01dZWdWg-161">
          <mxGeometry y="26" width="400" height="26" as="geometry" />
        </mxCell>
        <mxCell id="pXRvFqEu8pFY01dZWdWg-163" value="" style="line;strokeWidth=1;fillColor=none;align=left;verticalAlign=middle;spacingTop=-1;spacingLeft=3;spacingRight=3;rotatable=0;labelPosition=right;points=[];portConstraint=eastwest;strokeColor=inherit;" vertex="1" parent="pXRvFqEu8pFY01dZWdWg-161">
          <mxGeometry y="52" width="400" height="8" as="geometry" />
        </mxCell>
        <mxCell id="pXRvFqEu8pFY01dZWdWg-164" value="+ Client()" style="text;strokeColor=none;fillColor=none;align=left;verticalAlign=top;spacingLeft=4;spacingRight=4;overflow=hidden;rotatable=0;points=[[0,0.5],[1,0.5]];portConstraint=eastwest;whiteSpace=wrap;html=1;" vertex="1" parent="pXRvFqEu8pFY01dZWdWg-161">
          <mxGeometry y="60" width="400" height="26" as="geometry" />
        </mxCell>
        <mxCell id="pXRvFqEu8pFY01dZWdWg-165" value="+ addToCart(product: InterfaceProduct) : void" style="text;strokeColor=none;fillColor=none;align=left;verticalAlign=top;spacingLeft=4;spacingRight=4;overflow=hidden;rotatable=0;points=[[0,0.5],[1,0.5]];portConstraint=eastwest;whiteSpace=wrap;html=1;" vertex="1" parent="pXRvFqEu8pFY01dZWdWg-161">
          <mxGeometry y="86" width="400" height="26" as="geometry" />
        </mxCell>
        <mxCell id="pXRvFqEu8pFY01dZWdWg-166" value="+ removeFromCart(product : InterfaceProduct) : void" style="text;strokeColor=none;fillColor=none;align=left;verticalAlign=top;spacingLeft=4;spacingRight=4;overflow=hidden;rotatable=0;points=[[0,0.5],[1,0.5]];portConstraint=eastwest;whiteSpace=wrap;html=1;" vertex="1" parent="pXRvFqEu8pFY01dZWdWg-161">
          <mxGeometry y="112" width="400" height="26" as="geometry" />
        </mxCell>
        <mxCell id="pXRvFqEu8pFY01dZWdWg-167" value="+ check() : void" style="text;strokeColor=none;fillColor=none;align=left;verticalAlign=top;spacingLeft=4;spacingRight=4;overflow=hidden;rotatable=0;points=[[0,0.5],[1,0.5]];portConstraint=eastwest;whiteSpace=wrap;html=1;" vertex="1" parent="pXRvFqEu8pFY01dZWdWg-161">
          <mxGeometry y="138" width="400" height="26" as="geometry" />
        </mxCell>
        <mxCell id="pXRvFqEu8pFY01dZWdWg-168" value="" style="endArrow=classic;html=1;rounded=0;entryX=0.699;entryY=-0.06;entryDx=0;entryDy=0;entryPerimeter=0;exitX=0.335;exitY=0.983;exitDx=0;exitDy=0;exitPerimeter=0;dashed=1;" edge="1" parent="1" source="pXRvFqEu8pFY01dZWdWg-167" target="pXRvFqEu8pFY01dZWdWg-81">
          <mxGeometry width="50" height="50" relative="1" as="geometry">
            <mxPoint x="-460" y="1330" as="sourcePoint" />
            <mxPoint x="-410" y="1280" as="targetPoint" />
          </mxGeometry>
        </mxCell>
        <mxCell id="pXRvFqEu8pFY01dZWdWg-169" value="Client" style="swimlane;fontStyle=1;align=center;verticalAlign=top;childLayout=stackLayout;horizontal=1;startSize=26;horizontalStack=0;resizeParent=1;resizeParentMax=0;resizeLast=0;collapsible=1;marginBottom=0;whiteSpace=wrap;html=1;" vertex="1" parent="1">
          <mxGeometry x="-400" y="270" width="400" height="164" as="geometry" />
        </mxCell>
        <mxCell id="pXRvFqEu8pFY01dZWdWg-170" value="+ shopingcart: ShopingCart" style="text;strokeColor=none;fillColor=none;align=left;verticalAlign=top;spacingLeft=4;spacingRight=4;overflow=hidden;rotatable=0;points=[[0,0.5],[1,0.5]];portConstraint=eastwest;whiteSpace=wrap;html=1;" vertex="1" parent="pXRvFqEu8pFY01dZWdWg-169">
          <mxGeometry y="26" width="400" height="26" as="geometry" />
        </mxCell>
        <mxCell id="pXRvFqEu8pFY01dZWdWg-171" value="" style="line;strokeWidth=1;fillColor=none;align=left;verticalAlign=middle;spacingTop=-1;spacingLeft=3;spacingRight=3;rotatable=0;labelPosition=right;points=[];portConstraint=eastwest;strokeColor=inherit;" vertex="1" parent="pXRvFqEu8pFY01dZWdWg-169">
          <mxGeometry y="52" width="400" height="8" as="geometry" />
        </mxCell>
        <mxCell id="pXRvFqEu8pFY01dZWdWg-172" value="+ Client()" style="text;strokeColor=none;fillColor=none;align=left;verticalAlign=top;spacingLeft=4;spacingRight=4;overflow=hidden;rotatable=0;points=[[0,0.5],[1,0.5]];portConstraint=eastwest;whiteSpace=wrap;html=1;" vertex="1" parent="pXRvFqEu8pFY01dZWdWg-169">
          <mxGeometry y="60" width="400" height="26" as="geometry" />
        </mxCell>
        <mxCell id="pXRvFqEu8pFY01dZWdWg-173" value="+ addToCart(product: InterfaceProduct) : void" style="text;strokeColor=none;fillColor=none;align=left;verticalAlign=top;spacingLeft=4;spacingRight=4;overflow=hidden;rotatable=0;points=[[0,0.5],[1,0.5]];portConstraint=eastwest;whiteSpace=wrap;html=1;" vertex="1" parent="pXRvFqEu8pFY01dZWdWg-169">
          <mxGeometry y="86" width="400" height="26" as="geometry" />
        </mxCell>
        <mxCell id="pXRvFqEu8pFY01dZWdWg-174" value="+ removeFromCart(product : InterfaceProduct) : void" style="text;strokeColor=none;fillColor=none;align=left;verticalAlign=top;spacingLeft=4;spacingRight=4;overflow=hidden;rotatable=0;points=[[0,0.5],[1,0.5]];portConstraint=eastwest;whiteSpace=wrap;html=1;" vertex="1" parent="pXRvFqEu8pFY01dZWdWg-169">
          <mxGeometry y="112" width="400" height="26" as="geometry" />
        </mxCell>
        <mxCell id="pXRvFqEu8pFY01dZWdWg-175" value="+ check() : void" style="text;strokeColor=none;fillColor=none;align=left;verticalAlign=top;spacingLeft=4;spacingRight=4;overflow=hidden;rotatable=0;points=[[0,0.5],[1,0.5]];portConstraint=eastwest;whiteSpace=wrap;html=1;" vertex="1" parent="pXRvFqEu8pFY01dZWdWg-169">
          <mxGeometry y="138" width="400" height="26" as="geometry" />
        </mxCell>
        <mxCell id="pXRvFqEu8pFY01dZWdWg-176" value="" style="endArrow=classic;html=1;rounded=0;entryX=0.5;entryY=0;entryDx=0;entryDy=0;exitX=0.48;exitY=0.945;exitDx=0;exitDy=0;exitPerimeter=0;" edge="1" parent="1" source="pXRvFqEu8pFY01dZWdWg-175" target="pXRvFqEu8pFY01dZWdWg-23">
          <mxGeometry width="50" height="50" relative="1" as="geometry">
            <mxPoint x="-200" y="550" as="sourcePoint" />
            <mxPoint x="-150" y="500" as="targetPoint" />
          </mxGeometry>
        </mxCell>
        <mxCell id="pXRvFqEu8pFY01dZWdWg-177" value="Client" style="swimlane;fontStyle=1;align=center;verticalAlign=top;childLayout=stackLayout;horizontal=1;startSize=26;horizontalStack=0;resizeParent=1;resizeParentMax=0;resizeLast=0;collapsible=1;marginBottom=0;whiteSpace=wrap;html=1;" vertex="1" parent="1">
          <mxGeometry x="-580" y="-830" width="400" height="164" as="geometry" />
        </mxCell>
        <mxCell id="pXRvFqEu8pFY01dZWdWg-178" value="+ shopingcart: ShopingCart" style="text;strokeColor=none;fillColor=none;align=left;verticalAlign=top;spacingLeft=4;spacingRight=4;overflow=hidden;rotatable=0;points=[[0,0.5],[1,0.5]];portConstraint=eastwest;whiteSpace=wrap;html=1;" vertex="1" parent="pXRvFqEu8pFY01dZWdWg-177">
          <mxGeometry y="26" width="400" height="26" as="geometry" />
        </mxCell>
        <mxCell id="pXRvFqEu8pFY01dZWdWg-179" value="" style="line;strokeWidth=1;fillColor=none;align=left;verticalAlign=middle;spacingTop=-1;spacingLeft=3;spacingRight=3;rotatable=0;labelPosition=right;points=[];portConstraint=eastwest;strokeColor=inherit;" vertex="1" parent="pXRvFqEu8pFY01dZWdWg-177">
          <mxGeometry y="52" width="400" height="8" as="geometry" />
        </mxCell>
        <mxCell id="pXRvFqEu8pFY01dZWdWg-180" value="+ Client()" style="text;strokeColor=none;fillColor=none;align=left;verticalAlign=top;spacingLeft=4;spacingRight=4;overflow=hidden;rotatable=0;points=[[0,0.5],[1,0.5]];portConstraint=eastwest;whiteSpace=wrap;html=1;" vertex="1" parent="pXRvFqEu8pFY01dZWdWg-177">
          <mxGeometry y="60" width="400" height="26" as="geometry" />
        </mxCell>
        <mxCell id="pXRvFqEu8pFY01dZWdWg-181" value="+ addToCart(product: InterfaceProduct) : void" style="text;strokeColor=none;fillColor=none;align=left;verticalAlign=top;spacingLeft=4;spacingRight=4;overflow=hidden;rotatable=0;points=[[0,0.5],[1,0.5]];portConstraint=eastwest;whiteSpace=wrap;html=1;" vertex="1" parent="pXRvFqEu8pFY01dZWdWg-177">
          <mxGeometry y="86" width="400" height="26" as="geometry" />
        </mxCell>
        <mxCell id="pXRvFqEu8pFY01dZWdWg-182" value="+ removeFromCart(product : InterfaceProduct) : void" style="text;strokeColor=none;fillColor=none;align=left;verticalAlign=top;spacingLeft=4;spacingRight=4;overflow=hidden;rotatable=0;points=[[0,0.5],[1,0.5]];portConstraint=eastwest;whiteSpace=wrap;html=1;" vertex="1" parent="pXRvFqEu8pFY01dZWdWg-177">
          <mxGeometry y="112" width="400" height="26" as="geometry" />
        </mxCell>
        <mxCell id="pXRvFqEu8pFY01dZWdWg-183" value="+ check() : void" style="text;strokeColor=none;fillColor=none;align=left;verticalAlign=top;spacingLeft=4;spacingRight=4;overflow=hidden;rotatable=0;points=[[0,0.5],[1,0.5]];portConstraint=eastwest;whiteSpace=wrap;html=1;" vertex="1" parent="pXRvFqEu8pFY01dZWdWg-177">
          <mxGeometry y="138" width="400" height="26" as="geometry" />
        </mxCell>
        <mxCell id="pXRvFqEu8pFY01dZWdWg-185" value="" style="endArrow=classic;html=1;rounded=0;entryX=0.445;entryY=0.013;entryDx=0;entryDy=0;entryPerimeter=0;exitX=0.543;exitY=1.087;exitDx=0;exitDy=0;exitPerimeter=0;" edge="1" parent="1" source="pXRvFqEu8pFY01dZWdWg-183" target="pXRvFqEu8pFY01dZWdWg-56">
          <mxGeometry width="50" height="50" relative="1" as="geometry">
            <mxPoint x="-520" y="-840" as="sourcePoint" />
            <mxPoint x="-470" y="-890" as="targetPoint" />
          </mxGeometry>
        </mxCell>
      </root>
    </mxGraphModel>
  </diagram>
</mxfile>
